<svg height="512" viewBox="0 0 59 44" width="512" xmlns="http://www.w3.org/2000/svg"><g id="Page-1" fill="none" fill-rule="evenodd"><g id="049---Volume" fill-rule="nonzero"><path id="Shape" d="m24 31v3h-16c-2.209139 0-4-1.790861-4-4v-16c0-2.209139 1.790861-4 4-4h16z" fill="#35495e"/><path id="Shape" d="m11 31h-2c-1.1045695 0-2-.8954305-2-2v-2c0-.5522847.44771525-1 1-1s1 .4477153 1 1v2h2c.5522847 0 1 .4477153 1 1s-.4477153 1-1 1z" fill="#547580"/><path id="Shape" d="m2 15h2v14h-2c-1.1045695 0-2-.8954305-2-2v-10c0-1.1045695.8954305-2 2-2z" fill="#2c3e50"/><g fill="#547580"><path id="Shape" d="m16 31h-1c-.5522847 0-1-.4477153-1-1s.4477153-1 1-1h1c.5522847 0 1 .4477153 1 1s-.4477153 1-1 1z"/><path id="Shape" d="m20 15h-2c-.5522847 0-1-.4477153-1-1s.4477153-1 1-1h2c.5522847 0 1 .4477153 1 1s-.4477153 1-1 1z"/><path id="Shape" d="m14 15h-4c-.55228475 0-1-.4477153-1-1s.44771525-1 1-1h4c.5522847 0 1 .4477153 1 1s-.4477153 1-1 1z"/></g><path id="Shape" d="m24 34 9.781 7.524c.6040397.4643904 1.4194677.5452341 2.102934.2084905.6834663-.3367435 1.116229-1.0325703 1.116066-1.7944905v-35.876c.000163-.76192017-.4325997-1.45774699-1.116066-1.79449055-.6834663-.33674355-1.4988943-.25589982-2.102934.20849055l-9.781 7.524z" fill="#95a5a5"/><path id="Shape" d="m33 11c-.5522847 0-1-.4477153-1-1v-2c0-.55228475.4477153-1 1-1s1 .44771525 1 1v2c0 .5522847-.4477153 1-1 1z" fill="#bdc3c7"/><path id="Shape" d="m33 25c-.5522847 0-1-.4477153-1-1v-10c0-.5522847.4477153-1 1-1s1 .4477153 1 1v10c0 .5522847-.4477153 1-1 1z" fill="#bdc3c7"/><path id="Shape" d="m45.27 38c-.4106603-.000155-.7794799-.2513581-.9300143-.6334331-.1505345-.382075-.0521784-.8173416.2480143-1.0975669 3.9867723-3.6438596 6.303923-8.763857 6.4101514-14.1639293.1062285-5.4000724-2.0077696-10.6072379-5.8481514-14.4050707-.2834965-.24644875-.4049658-.63098544-.3144847-.99556798.0904811-.36458255.3776482-.647705.7434774-.73300587s.7486044.0416103.9910073.32857385c4.2204011 4.1816204 6.5427865 9.9100899 6.4258187 15.850128-.1169678 5.9400382-2.6630689 11.5726402-7.0448187 15.584872-.1850646.1716826-.4285683.266438-.681.265z" fill="#2fa8cc"/><path id="Shape" d="m42.969 32c-.3787721 0-.7250352-.2140024-.8944272-.5527864s-.132836-.744196.0944272-1.0472136c3.7721474-4.9625456 3.7721474-11.8314544 0-16.794-.3330277-.4418278-.2448278-1.0699723.197-1.403s1.0699723-.2448278 1.403.197c4.3080863 5.6772418 4.3080863 13.5287582 0 19.206-.1907113.2488077-.4865102.3944887-.8.394z" fill="#2fa8cc"/><path id="Shape" d="m49.108 2.663c-.2508005.00066895-.4924691-.09406797-.676-.265-.238-.216-.4786667-.429-.722-.639-.3948857-.36483997-.4306334-.97661021-.0809275-1.38495902.3497058-.40834882.9596952-.46711627 1.3809275-.13304098.262.224.521.452.774.687.3025321.27909757.4031474.71505871.2535244 1.09850896-.1496229.38345025-.5189167.63605206-.9305244.63649104z" fill="#b0d3f0"/><path id="Shape" d="m52.6 38.955c-.3787721 0-.7250352-.2140024-.8944272-.5527864s-.132836-.744196.0944272-1.0472136c.379-.507.747-1.04 1.1-1.584.3010496-.4562408.912654-.5862179 1.3732247-.2918353s.5994287.9040321.3117753 1.3688353c-.374.585-.77 1.158-1.179 1.705-.1896968.2542562-.4887792.4034264-.806.402zm3.787-7.012c-.3263138.0000979-.632151-.1590213-.8193599-.4262919-.1872089-.2672705-.2322394-.609071-.1206401-.9157081.218-.6.415-1.212.589-1.83.0960405-.3443288.3685784-.6112042.7148475-.6999951.3462691-.088791.7135996.0140081.9634818.2696348.2498823.2556267.3443075.6251983.2476707.9693603-.188.668-.4 1.332-.636 1.976-.1440234.3944207-.5191067.6568592-.939.657zm1.578-7.811h-.054c-.2649899-.0139509-.5135697-.132652-.6910011-.3299648-.1774315-.1973127-.2691644-.4570567-.2549989-.7220352.0233333-.444.035-.8906667.035-1.34 0-.194 0-.389-.007-.583-.0064421-.2652381.0927846-.5221643.2758363-.7142186.1830516-.1920542.434922-.303492.7001637-.3097814h.024c.5426671-.0001696.9864333.4325024 1 .975.0046667.2106667.007.4213333.007.632 0 .4853333-.0123333.967-.037 1.445-.0281673.5307126-.4665406.946684-.998.947zm-.765-7.932c-.4580159-.0003551-.8572442-.3118274-.969-.756-.157-.625-.337-1.248-.536-1.85-.1731413-.5246705.1118295-1.0903587.6365-1.2635s1.0903587.1118295 1.2635.6365c.214.648.408 1.318.577 1.989.0647732.2572631.0246657.5297215-.1114948.7574059-.1361606.2276844-.3572139.391933-.6145052.4565941-.080499.0198355-.1630932.029908-.246.03zm-3.051-7.36c-.3519001.00042558-.6781235-.18414315-.859-.486-.325-.545-.679-1.088-1.049-1.616-.2054277-.29242189-.2392455-.67222523-.0887146-.99634179s.4625414-.54330533.8185-.575c.3559586-.03169468.7017869.1289199.9072146.42134179.4.567.778 1.152 1.129 1.738.185146.30898132.1898122.69366015.0122156 1.00704159-.1775966.31338145-.5100094.50703399-.8702156.50695841z" fill="#b0d3f0"/><path id="Shape" d="m47.741 44c-.4243195.0004144-.8027018-.2670029-.9439474-.667124-.1412457-.400121-.0145978-.8458177.3159474-1.111876.25-.2.495-.407.737-.617.4164227-.3628511 1.0481489-.3194227 1.411.097.362851.4164227.3194227 1.0481489-.097 1.411-.2613333.228-.528.4503333-.8.667-.1762929.1427263-.3961743.2207259-.623.221z" fill="#b0d3f0"/></g></g></svg>